<mxfile host="app.diagrams.net" modified="2022-10-25T01:26:56.966Z" agent="5.0 (Windows NT 10.0; Win64; x64) AppleWebKit/537.36 (KHTML, like Gecko) Chrome/106.0.0.0 Safari/537.36" etag="MH3Zptg7RyVGRApcVFY8" version="20.4.2" type="github">
  <diagram id="F6A8YvB1YXeBxUqBMwWJ" name="Page-1">
    <mxGraphModel dx="2585" dy="1371" grid="1" gridSize="10" guides="1" tooltips="1" connect="1" arrows="1" fold="1" page="1" pageScale="1" pageWidth="827" pageHeight="1169" math="0" shadow="0">
      <root>
        <mxCell id="0" />
        <mxCell id="1" parent="0" />
        <mxCell id="xrhhJrtV2kITuw0rK8y6-18" value="Plot A&lt;br&gt;3D Plot" style="shape=parallelogram;perimeter=parallelogramPerimeter;whiteSpace=wrap;html=1;fixedSize=1;strokeColor=#000000;" parent="1" vertex="1">
          <mxGeometry x="120.63" y="892" width="135" height="40" as="geometry" />
        </mxCell>
        <mxCell id="xrhhJrtV2kITuw0rK8y6-19" value="Plot B&lt;br&gt;Elevation vs Time" style="shape=parallelogram;perimeter=parallelogramPerimeter;whiteSpace=wrap;html=1;fixedSize=1;strokeColor=#000000;" parent="1" vertex="1">
          <mxGeometry x="290.63" y="892" width="135" height="40" as="geometry" />
        </mxCell>
        <mxCell id="xrhhJrtV2kITuw0rK8y6-23" style="edgeStyle=orthogonalEdgeStyle;rounded=0;orthogonalLoop=1;jettySize=auto;html=1;entryX=0.5;entryY=0;entryDx=0;entryDy=0;" parent="1" source="xrhhJrtV2kITuw0rK8y6-20" target="xrhhJrtV2kITuw0rK8y6-22" edge="1">
          <mxGeometry relative="1" as="geometry" />
        </mxCell>
        <mxCell id="xrhhJrtV2kITuw0rK8y6-20" value="Plot C&lt;br&gt;Cumulative Distance" style="shape=parallelogram;perimeter=parallelogramPerimeter;whiteSpace=wrap;html=1;fixedSize=1;strokeColor=#000000;" parent="1" vertex="1">
          <mxGeometry x="450.63" y="892" width="135" height="40" as="geometry" />
        </mxCell>
        <mxCell id="xrhhJrtV2kITuw0rK8y6-24" style="edgeStyle=orthogonalEdgeStyle;rounded=0;orthogonalLoop=1;jettySize=auto;html=1;" parent="1" source="xrhhJrtV2kITuw0rK8y6-21" target="xrhhJrtV2kITuw0rK8y6-22" edge="1">
          <mxGeometry relative="1" as="geometry" />
        </mxCell>
        <mxCell id="xrhhJrtV2kITuw0rK8y6-21" value="Plot D&lt;br&gt;Velocity vs Time" style="shape=parallelogram;perimeter=parallelogramPerimeter;whiteSpace=wrap;html=1;fixedSize=1;strokeColor=#000000;" parent="1" vertex="1">
          <mxGeometry x="600.63" y="892" width="135" height="40" as="geometry" />
        </mxCell>
        <mxCell id="xrhhJrtV2kITuw0rK8y6-22" value="Plot E&lt;br&gt;Velocity vs Cumulative Distance" style="shape=parallelogram;perimeter=parallelogramPerimeter;whiteSpace=wrap;html=1;fixedSize=1;strokeColor=#000000;" parent="1" vertex="1">
          <mxGeometry x="500.63" y="972" width="150" height="50" as="geometry" />
        </mxCell>
        <mxCell id="xrhhJrtV2kITuw0rK8y6-29" value="James" style="text;html=1;align=center;verticalAlign=middle;resizable=0;points=[];autosize=1;strokeColor=none;fillColor=none;" parent="1" vertex="1">
          <mxGeometry x="509" y="862" width="60" height="30" as="geometry" />
        </mxCell>
        <mxCell id="xrhhJrtV2kITuw0rK8y6-30" value="Ethan" style="text;html=1;align=center;verticalAlign=middle;resizable=0;points=[];autosize=1;strokeColor=none;fillColor=none;" parent="1" vertex="1">
          <mxGeometry x="346.5" y="862" width="50" height="30" as="geometry" />
        </mxCell>
        <mxCell id="xrhhJrtV2kITuw0rK8y6-31" value="Angus N" style="text;html=1;align=center;verticalAlign=middle;resizable=0;points=[];autosize=1;strokeColor=none;fillColor=none;" parent="1" vertex="1">
          <mxGeometry x="170" y="862" width="70" height="30" as="geometry" />
        </mxCell>
        <mxCell id="CHZw3XQSGmE2OFtVjkvF-1" value="Hasaan" style="text;html=1;align=center;verticalAlign=middle;resizable=0;points=[];autosize=1;strokeColor=none;fillColor=none;" parent="1" vertex="1">
          <mxGeometry x="660" y="862" width="60" height="30" as="geometry" />
        </mxCell>
        <mxCell id="CHZw3XQSGmE2OFtVjkvF-2" value="Angus" style="text;html=1;align=center;verticalAlign=middle;resizable=0;points=[];autosize=1;strokeColor=none;fillColor=none;" parent="1" vertex="1">
          <mxGeometry x="585.63" y="952" width="60" height="30" as="geometry" />
        </mxCell>
        <mxCell id="Cii7YTSOBGibkpkh7l27-8" value="Plot A (function_name)" style="rounded=0;whiteSpace=wrap;html=1;fontSize=11;" parent="1" vertex="1">
          <mxGeometry x="740" y="947" width="120" height="25" as="geometry" />
        </mxCell>
        <mxCell id="WTddCbC6a__xVhWKfnHQ-85" value="" style="group" vertex="1" connectable="0" parent="1">
          <mxGeometry x="190" y="70" width="795" height="541.5" as="geometry" />
        </mxCell>
        <mxCell id="xrhhJrtV2kITuw0rK8y6-3" value="Get Filename from User" style="shape=parallelogram;perimeter=parallelogramPerimeter;whiteSpace=wrap;html=1;fixedSize=1;strokeColor=#6c8ebf;fillColor=#dae8fc;" parent="WTddCbC6a__xVhWKfnHQ-85" vertex="1">
          <mxGeometry x="150" y="80" width="180" height="60" as="geometry" />
        </mxCell>
        <mxCell id="xrhhJrtV2kITuw0rK8y6-7" style="edgeStyle=orthogonalEdgeStyle;rounded=0;orthogonalLoop=1;jettySize=auto;html=1;exitX=0.5;exitY=1;exitDx=0;exitDy=0;entryX=0.5;entryY=0;entryDx=0;entryDy=0;" parent="WTddCbC6a__xVhWKfnHQ-85" source="xrhhJrtV2kITuw0rK8y6-5" target="xrhhJrtV2kITuw0rK8y6-3" edge="1">
          <mxGeometry relative="1" as="geometry" />
        </mxCell>
        <mxCell id="xrhhJrtV2kITuw0rK8y6-5" value="Start" style="ellipse;whiteSpace=wrap;html=1;strokeColor=#9673a6;fillColor=#e1d5e7;" parent="WTddCbC6a__xVhWKfnHQ-85" vertex="1">
          <mxGeometry x="207.5" width="65" height="60" as="geometry" />
        </mxCell>
        <mxCell id="xrhhJrtV2kITuw0rK8y6-8" value="Call the Parser module to read file and convert to matrix in memory" style="rounded=0;whiteSpace=wrap;html=1;strokeColor=#666666;fillColor=#f5f5f5;fontColor=#333333;" parent="WTddCbC6a__xVhWKfnHQ-85" vertex="1">
          <mxGeometry x="156.25" y="160" width="167.5" height="60" as="geometry" />
        </mxCell>
        <mxCell id="xrhhJrtV2kITuw0rK8y6-9" style="edgeStyle=orthogonalEdgeStyle;rounded=0;orthogonalLoop=1;jettySize=auto;html=1;exitX=0.5;exitY=1;exitDx=0;exitDy=0;entryX=0.5;entryY=0;entryDx=0;entryDy=0;" parent="WTddCbC6a__xVhWKfnHQ-85" source="xrhhJrtV2kITuw0rK8y6-3" target="xrhhJrtV2kITuw0rK8y6-8" edge="1">
          <mxGeometry relative="1" as="geometry" />
        </mxCell>
        <mxCell id="xrhhJrtV2kITuw0rK8y6-10" value="Convert GPS coordinate to Northings and Eastings" style="rounded=0;whiteSpace=wrap;html=1;strokeColor=#666666;fillColor=#f5f5f5;fontColor=#333333;" parent="WTddCbC6a__xVhWKfnHQ-85" vertex="1">
          <mxGeometry x="156.25" y="250" width="163.75" height="60" as="geometry" />
        </mxCell>
        <mxCell id="xrhhJrtV2kITuw0rK8y6-11" style="edgeStyle=orthogonalEdgeStyle;rounded=0;orthogonalLoop=1;jettySize=auto;html=1;exitX=0.5;exitY=1;exitDx=0;exitDy=0;entryX=0.5;entryY=0;entryDx=0;entryDy=0;" parent="WTddCbC6a__xVhWKfnHQ-85" source="xrhhJrtV2kITuw0rK8y6-8" target="xrhhJrtV2kITuw0rK8y6-10" edge="1">
          <mxGeometry relative="1" as="geometry" />
        </mxCell>
        <mxCell id="xrhhJrtV2kITuw0rK8y6-15" style="edgeStyle=orthogonalEdgeStyle;rounded=0;orthogonalLoop=1;jettySize=auto;html=1;" parent="WTddCbC6a__xVhWKfnHQ-85" source="xrhhJrtV2kITuw0rK8y6-14" edge="1">
          <mxGeometry relative="1" as="geometry">
            <mxPoint x="150" y="190" as="targetPoint" />
          </mxGeometry>
        </mxCell>
        <mxCell id="xrhhJrtV2kITuw0rK8y6-14" value="Angus B" style="text;html=1;align=center;verticalAlign=middle;resizable=0;points=[];autosize=1;strokeColor=none;fillColor=none;" parent="WTddCbC6a__xVhWKfnHQ-85" vertex="1">
          <mxGeometry y="175" width="70" height="30" as="geometry" />
        </mxCell>
        <mxCell id="xrhhJrtV2kITuw0rK8y6-17" style="edgeStyle=orthogonalEdgeStyle;rounded=0;orthogonalLoop=1;jettySize=auto;html=1;" parent="WTddCbC6a__xVhWKfnHQ-85" source="xrhhJrtV2kITuw0rK8y6-16" edge="1">
          <mxGeometry relative="1" as="geometry">
            <mxPoint x="150" y="280" as="targetPoint" />
          </mxGeometry>
        </mxCell>
        <mxCell id="xrhhJrtV2kITuw0rK8y6-16" value="Hasaan" style="text;html=1;align=center;verticalAlign=middle;resizable=0;points=[];autosize=1;strokeColor=none;fillColor=none;" parent="WTddCbC6a__xVhWKfnHQ-85" vertex="1">
          <mxGeometry x="5" y="265" width="60" height="30" as="geometry" />
        </mxCell>
        <mxCell id="Cii7YTSOBGibkpkh7l27-2" value="Plot Manager calls all plotting sub routines" style="rounded=0;whiteSpace=wrap;html=1;fontSize=11;fillColor=#f5f5f5;fontColor=#333333;strokeColor=#666666;" parent="WTddCbC6a__xVhWKfnHQ-85" vertex="1">
          <mxGeometry x="156.5" y="332" width="163.5" height="60" as="geometry" />
        </mxCell>
        <mxCell id="WTddCbC6a__xVhWKfnHQ-20" style="edgeStyle=orthogonalEdgeStyle;rounded=0;orthogonalLoop=1;jettySize=auto;html=1;exitX=0.5;exitY=1;exitDx=0;exitDy=0;entryX=0.5;entryY=0;entryDx=0;entryDy=0;fontSize=7;" edge="1" parent="WTddCbC6a__xVhWKfnHQ-85" source="xrhhJrtV2kITuw0rK8y6-10" target="Cii7YTSOBGibkpkh7l27-2">
          <mxGeometry relative="1" as="geometry" />
        </mxCell>
        <mxCell id="Cii7YTSOBGibkpkh7l27-18" value="Save generated plots &lt;br&gt;to local files" style="shape=parallelogram;perimeter=parallelogramPerimeter;whiteSpace=wrap;html=1;fixedSize=1;fontSize=11;fillColor=#dae8fc;strokeColor=#6c8ebf;" parent="WTddCbC6a__xVhWKfnHQ-85" vertex="1">
          <mxGeometry x="152.5" y="414" width="167.5" height="52" as="geometry" />
        </mxCell>
        <mxCell id="WTddCbC6a__xVhWKfnHQ-7" style="edgeStyle=orthogonalEdgeStyle;rounded=0;orthogonalLoop=1;jettySize=auto;html=1;exitX=0.5;exitY=1;exitDx=0;exitDy=0;entryX=0.5;entryY=0;entryDx=0;entryDy=0;" edge="1" parent="WTddCbC6a__xVhWKfnHQ-85" source="Cii7YTSOBGibkpkh7l27-2" target="Cii7YTSOBGibkpkh7l27-18">
          <mxGeometry relative="1" as="geometry" />
        </mxCell>
        <mxCell id="Cii7YTSOBGibkpkh7l27-19" value="End" style="ellipse;whiteSpace=wrap;html=1;strokeColor=#b85450;fillColor=#f8cecc;" parent="WTddCbC6a__xVhWKfnHQ-85" vertex="1">
          <mxGeometry x="203.75" y="481.5" width="65" height="60" as="geometry" />
        </mxCell>
        <mxCell id="WTddCbC6a__xVhWKfnHQ-8" style="edgeStyle=orthogonalEdgeStyle;rounded=0;orthogonalLoop=1;jettySize=auto;html=1;exitX=0.5;exitY=1;exitDx=0;exitDy=0;entryX=0.5;entryY=0;entryDx=0;entryDy=0;" edge="1" parent="WTddCbC6a__xVhWKfnHQ-85" source="Cii7YTSOBGibkpkh7l27-18" target="Cii7YTSOBGibkpkh7l27-19">
          <mxGeometry relative="1" as="geometry" />
        </mxCell>
        <mxCell id="Cii7YTSOBGibkpkh7l27-20" value="Angus B" style="text;html=1;align=center;verticalAlign=middle;resizable=0;points=[];autosize=1;strokeColor=none;fillColor=none;" parent="WTddCbC6a__xVhWKfnHQ-85" vertex="1">
          <mxGeometry x="5" y="347" width="70" height="30" as="geometry" />
        </mxCell>
        <mxCell id="Cii7YTSOBGibkpkh7l27-21" style="edgeStyle=orthogonalEdgeStyle;rounded=0;orthogonalLoop=1;jettySize=auto;html=1;" parent="WTddCbC6a__xVhWKfnHQ-85" edge="1">
          <mxGeometry relative="1" as="geometry">
            <mxPoint x="150" y="361.47" as="targetPoint" />
            <mxPoint x="70" y="361.47" as="sourcePoint" />
          </mxGeometry>
        </mxCell>
        <mxCell id="Cii7YTSOBGibkpkh7l27-13" value="" style="rounded=0;whiteSpace=wrap;html=1;fontSize=11;fillColor=#f5f5f5;fontColor=#333333;strokeColor=#666666;" parent="WTddCbC6a__xVhWKfnHQ-85" vertex="1">
          <mxGeometry x="414" y="160" width="251" height="277" as="geometry" />
        </mxCell>
        <mxCell id="WTddCbC6a__xVhWKfnHQ-84" style="edgeStyle=orthogonalEdgeStyle;rounded=0;orthogonalLoop=1;jettySize=auto;html=1;exitX=1;exitY=0.75;exitDx=0;exitDy=0;strokeWidth=1;fontSize=4;startArrow=classic;startFill=1;endArrow=none;endFill=0;startSize=6;endSize=6;entryX=0.5;entryY=1;entryDx=0;entryDy=0;" edge="1" parent="WTddCbC6a__xVhWKfnHQ-85" source="Cii7YTSOBGibkpkh7l27-2" target="Cii7YTSOBGibkpkh7l27-13">
          <mxGeometry relative="1" as="geometry">
            <mxPoint x="360" y="420" as="targetPoint" />
          </mxGeometry>
        </mxCell>
        <mxCell id="Cii7YTSOBGibkpkh7l27-3" value="Plot A (spatial_plot)" style="rounded=0;whiteSpace=wrap;html=1;fontSize=11;" parent="WTddCbC6a__xVhWKfnHQ-85" vertex="1">
          <mxGeometry x="449.72539998626655" y="187" width="203.5294925496121" height="25" as="geometry" />
        </mxCell>
        <mxCell id="Cii7YTSOBGibkpkh7l27-4" value="Plot B (elevation_time)" style="rounded=0;whiteSpace=wrap;html=1;fontSize=11;" parent="WTddCbC6a__xVhWKfnHQ-85" vertex="1">
          <mxGeometry x="449.72539998626655" y="222" width="203.5294925496121" height="25" as="geometry" />
        </mxCell>
        <mxCell id="Cii7YTSOBGibkpkh7l27-5" value="Plot D (velocity_time)" style="rounded=0;whiteSpace=wrap;html=1;fontSize=11;" parent="WTddCbC6a__xVhWKfnHQ-85" vertex="1">
          <mxGeometry x="449.72539998626655" y="292" width="203.5294925496121" height="25" as="geometry" />
        </mxCell>
        <mxCell id="Cii7YTSOBGibkpkh7l27-6" value="Plot C (cumulative_distance_time)" style="rounded=0;whiteSpace=wrap;html=1;fontSize=11;" parent="WTddCbC6a__xVhWKfnHQ-85" vertex="1">
          <mxGeometry x="449.72539998626655" y="257" width="203.5294925496121" height="25" as="geometry" />
        </mxCell>
        <mxCell id="Cii7YTSOBGibkpkh7l27-7" value="Plot E (velocity_cumulative_distance)" style="rounded=0;whiteSpace=wrap;html=1;fontSize=11;" parent="WTddCbC6a__xVhWKfnHQ-85" vertex="1">
          <mxGeometry x="449.72539998626655" y="327" width="203.5294925496121" height="25" as="geometry" />
        </mxCell>
        <mxCell id="Cii7YTSOBGibkpkh7l27-14" value="Iterate Through List of Function Handles" style="text;html=1;align=center;verticalAlign=middle;resizable=0;points=[];autosize=1;strokeColor=none;fillColor=none;fontSize=11;" parent="WTddCbC6a__xVhWKfnHQ-85" vertex="1">
          <mxGeometry x="440.63019335605" y="160" width="220" height="30" as="geometry" />
        </mxCell>
        <mxCell id="WTddCbC6a__xVhWKfnHQ-83" style="edgeStyle=orthogonalEdgeStyle;rounded=0;orthogonalLoop=1;jettySize=auto;html=1;exitX=1;exitY=0.25;exitDx=0;exitDy=0;strokeWidth=1;fontSize=4;startArrow=none;startFill=0;endArrow=classic;endFill=1;startSize=6;endSize=6;entryX=0.447;entryY=0.029;entryDx=0;entryDy=0;entryPerimeter=0;" edge="1" parent="WTddCbC6a__xVhWKfnHQ-85" source="Cii7YTSOBGibkpkh7l27-2" target="Cii7YTSOBGibkpkh7l27-14">
          <mxGeometry relative="1" as="geometry" />
        </mxCell>
        <mxCell id="WTddCbC6a__xVhWKfnHQ-2" value="CP1 (acceleration_time)" style="rounded=0;whiteSpace=wrap;html=1;fontSize=11;fillColor=#d5e8d4;strokeColor=#82b366;" vertex="1" parent="WTddCbC6a__xVhWKfnHQ-85">
          <mxGeometry x="449.73539998626654" y="370" width="203.5294925496121" height="25" as="geometry" />
        </mxCell>
        <mxCell id="WTddCbC6a__xVhWKfnHQ-3" value="CP2 (power_generation)" style="rounded=0;whiteSpace=wrap;html=1;fontSize=11;fillColor=#d5e8d4;strokeColor=#82b366;" vertex="1" parent="WTddCbC6a__xVhWKfnHQ-85">
          <mxGeometry x="449.73539998626654" y="404" width="203.5294925496121" height="25" as="geometry" />
        </mxCell>
        <mxCell id="WTddCbC6a__xVhWKfnHQ-6" value="" style="endArrow=none;dashed=1;html=1;rounded=0;" edge="1" parent="WTddCbC6a__xVhWKfnHQ-85">
          <mxGeometry width="50" height="50" relative="1" as="geometry">
            <mxPoint x="454.62" y="362" as="sourcePoint" />
            <mxPoint x="648.36" y="362" as="targetPoint" />
          </mxGeometry>
        </mxCell>
        <mxCell id="WTddCbC6a__xVhWKfnHQ-9" value="Angus Nash" style="text;html=1;align=center;verticalAlign=middle;resizable=0;points=[];autosize=1;strokeColor=none;fillColor=none;" vertex="1" parent="WTddCbC6a__xVhWKfnHQ-85">
          <mxGeometry x="665" y="184.5" width="90" height="30" as="geometry" />
        </mxCell>
        <mxCell id="WTddCbC6a__xVhWKfnHQ-10" value="Ethan Mackay" style="text;html=1;align=center;verticalAlign=middle;resizable=0;points=[];autosize=1;strokeColor=none;fillColor=none;" vertex="1" parent="WTddCbC6a__xVhWKfnHQ-85">
          <mxGeometry x="665" y="219.5" width="100" height="30" as="geometry" />
        </mxCell>
        <mxCell id="WTddCbC6a__xVhWKfnHQ-12" value="Ritankar Biswanghri" style="text;html=1;align=center;verticalAlign=middle;resizable=0;points=[];autosize=1;strokeColor=none;fillColor=none;" vertex="1" parent="WTddCbC6a__xVhWKfnHQ-85">
          <mxGeometry x="665" y="367.5" width="130" height="30" as="geometry" />
        </mxCell>
        <mxCell id="WTddCbC6a__xVhWKfnHQ-13" value="Hasaan Farache" style="text;html=1;align=center;verticalAlign=middle;resizable=0;points=[];autosize=1;strokeColor=none;fillColor=none;" vertex="1" parent="WTddCbC6a__xVhWKfnHQ-85">
          <mxGeometry x="665" y="289.5" width="110" height="30" as="geometry" />
        </mxCell>
        <mxCell id="WTddCbC6a__xVhWKfnHQ-14" value="James Kirby" style="text;html=1;align=center;verticalAlign=middle;resizable=0;points=[];autosize=1;strokeColor=none;fillColor=none;" vertex="1" parent="WTddCbC6a__xVhWKfnHQ-85">
          <mxGeometry x="665" y="324.5" width="90" height="30" as="geometry" />
        </mxCell>
        <mxCell id="WTddCbC6a__xVhWKfnHQ-15" value="Angus Barnes" style="text;html=1;align=center;verticalAlign=middle;resizable=0;points=[];autosize=1;strokeColor=none;fillColor=none;" vertex="1" parent="WTddCbC6a__xVhWKfnHQ-85">
          <mxGeometry x="665" y="401.5" width="100" height="30" as="geometry" />
        </mxCell>
        <mxCell id="WTddCbC6a__xVhWKfnHQ-17" value="Hybrid*" style="text;html=1;align=center;verticalAlign=middle;resizable=0;points=[];autosize=1;strokeColor=none;fillColor=none;" vertex="1" parent="WTddCbC6a__xVhWKfnHQ-85">
          <mxGeometry x="665" y="254.5" width="60" height="30" as="geometry" />
        </mxCell>
        <mxCell id="WTddCbC6a__xVhWKfnHQ-18" value="&lt;font style=&quot;font-size: 7px;&quot;&gt;*Made by combining code from Ethan and James - Edit by Angus&lt;/font&gt;" style="text;html=1;align=center;verticalAlign=middle;resizable=0;points=[];autosize=1;strokeColor=none;fillColor=none;strokeWidth=5;" vertex="1" parent="WTddCbC6a__xVhWKfnHQ-85">
          <mxGeometry x="424.5" y="451.5" width="230" height="30" as="geometry" />
        </mxCell>
        <mxCell id="WTddCbC6a__xVhWKfnHQ-48" value="" style="group" vertex="1" connectable="0" parent="WTddCbC6a__xVhWKfnHQ-85">
          <mxGeometry x="414" y="400" width="40" height="29" as="geometry" />
        </mxCell>
        <mxCell id="WTddCbC6a__xVhWKfnHQ-49" value="&lt;font style=&quot;font-size: 4px;&quot;&gt;Call&lt;/font&gt;" style="text;html=1;align=center;verticalAlign=middle;resizable=0;points=[];autosize=1;strokeColor=none;fillColor=none;fontSize=7;" vertex="1" parent="WTddCbC6a__xVhWKfnHQ-48">
          <mxGeometry x="5" width="30" height="20" as="geometry" />
        </mxCell>
        <mxCell id="WTddCbC6a__xVhWKfnHQ-50" value="" style="endArrow=classic;html=1;rounded=0;fontSize=7;strokeWidth=1;endSize=1;" edge="1" parent="WTddCbC6a__xVhWKfnHQ-48">
          <mxGeometry width="50" height="50" relative="1" as="geometry">
            <mxPoint x="8" y="13.5" as="sourcePoint" />
            <mxPoint x="32.370000000000005" y="13.5" as="targetPoint" />
          </mxGeometry>
        </mxCell>
        <mxCell id="WTddCbC6a__xVhWKfnHQ-51" value="" style="endArrow=none;html=1;rounded=0;fontSize=7;strokeWidth=1;endSize=1;startSize=1;startArrow=classic;startFill=1;endFill=0;" edge="1" parent="WTddCbC6a__xVhWKfnHQ-48">
          <mxGeometry width="50" height="50" relative="1" as="geometry">
            <mxPoint x="8" y="21.879999999999995" as="sourcePoint" />
            <mxPoint x="32.36999999999989" y="21.879999999999995" as="targetPoint" />
          </mxGeometry>
        </mxCell>
        <mxCell id="WTddCbC6a__xVhWKfnHQ-52" value="&lt;span style=&quot;font-size: 4px;&quot;&gt;Return&lt;/span&gt;" style="text;html=1;align=center;verticalAlign=middle;resizable=0;points=[];autosize=1;strokeColor=none;fillColor=none;fontSize=7;" vertex="1" parent="WTddCbC6a__xVhWKfnHQ-48">
          <mxGeometry y="9" width="40" height="20" as="geometry" />
        </mxCell>
        <mxCell id="WTddCbC6a__xVhWKfnHQ-53" value="" style="group" vertex="1" connectable="0" parent="WTddCbC6a__xVhWKfnHQ-85">
          <mxGeometry x="414" y="366" width="40" height="29" as="geometry" />
        </mxCell>
        <mxCell id="WTddCbC6a__xVhWKfnHQ-54" value="&lt;font style=&quot;font-size: 4px;&quot;&gt;Call&lt;/font&gt;" style="text;html=1;align=center;verticalAlign=middle;resizable=0;points=[];autosize=1;strokeColor=none;fillColor=none;fontSize=7;" vertex="1" parent="WTddCbC6a__xVhWKfnHQ-53">
          <mxGeometry x="5" width="30" height="20" as="geometry" />
        </mxCell>
        <mxCell id="WTddCbC6a__xVhWKfnHQ-55" value="" style="endArrow=classic;html=1;rounded=0;fontSize=7;strokeWidth=1;endSize=1;" edge="1" parent="WTddCbC6a__xVhWKfnHQ-53">
          <mxGeometry width="50" height="50" relative="1" as="geometry">
            <mxPoint x="8" y="13.5" as="sourcePoint" />
            <mxPoint x="32.370000000000005" y="13.5" as="targetPoint" />
          </mxGeometry>
        </mxCell>
        <mxCell id="WTddCbC6a__xVhWKfnHQ-56" value="" style="endArrow=none;html=1;rounded=0;fontSize=7;strokeWidth=1;endSize=1;startSize=1;startArrow=classic;startFill=1;endFill=0;" edge="1" parent="WTddCbC6a__xVhWKfnHQ-53">
          <mxGeometry width="50" height="50" relative="1" as="geometry">
            <mxPoint x="8" y="21.879999999999995" as="sourcePoint" />
            <mxPoint x="32.36999999999989" y="21.879999999999995" as="targetPoint" />
          </mxGeometry>
        </mxCell>
        <mxCell id="WTddCbC6a__xVhWKfnHQ-57" value="&lt;span style=&quot;font-size: 4px;&quot;&gt;Return&lt;/span&gt;" style="text;html=1;align=center;verticalAlign=middle;resizable=0;points=[];autosize=1;strokeColor=none;fillColor=none;fontSize=7;" vertex="1" parent="WTddCbC6a__xVhWKfnHQ-53">
          <mxGeometry y="9" width="40" height="20" as="geometry" />
        </mxCell>
        <mxCell id="WTddCbC6a__xVhWKfnHQ-58" value="" style="group" vertex="1" connectable="0" parent="WTddCbC6a__xVhWKfnHQ-85">
          <mxGeometry x="414" y="323" width="40" height="29" as="geometry" />
        </mxCell>
        <mxCell id="WTddCbC6a__xVhWKfnHQ-59" value="&lt;font style=&quot;font-size: 4px;&quot;&gt;Call&lt;/font&gt;" style="text;html=1;align=center;verticalAlign=middle;resizable=0;points=[];autosize=1;strokeColor=none;fillColor=none;fontSize=7;" vertex="1" parent="WTddCbC6a__xVhWKfnHQ-58">
          <mxGeometry x="5" width="30" height="20" as="geometry" />
        </mxCell>
        <mxCell id="WTddCbC6a__xVhWKfnHQ-60" value="" style="endArrow=classic;html=1;rounded=0;fontSize=7;strokeWidth=1;endSize=1;" edge="1" parent="WTddCbC6a__xVhWKfnHQ-58">
          <mxGeometry width="50" height="50" relative="1" as="geometry">
            <mxPoint x="8" y="13.5" as="sourcePoint" />
            <mxPoint x="32.370000000000005" y="13.5" as="targetPoint" />
          </mxGeometry>
        </mxCell>
        <mxCell id="WTddCbC6a__xVhWKfnHQ-61" value="" style="endArrow=none;html=1;rounded=0;fontSize=7;strokeWidth=1;endSize=1;startSize=1;startArrow=classic;startFill=1;endFill=0;" edge="1" parent="WTddCbC6a__xVhWKfnHQ-58">
          <mxGeometry width="50" height="50" relative="1" as="geometry">
            <mxPoint x="8" y="21.879999999999995" as="sourcePoint" />
            <mxPoint x="32.36999999999989" y="21.879999999999995" as="targetPoint" />
          </mxGeometry>
        </mxCell>
        <mxCell id="WTddCbC6a__xVhWKfnHQ-62" value="&lt;span style=&quot;font-size: 4px;&quot;&gt;Return&lt;/span&gt;" style="text;html=1;align=center;verticalAlign=middle;resizable=0;points=[];autosize=1;strokeColor=none;fillColor=none;fontSize=7;" vertex="1" parent="WTddCbC6a__xVhWKfnHQ-58">
          <mxGeometry y="9" width="40" height="20" as="geometry" />
        </mxCell>
        <mxCell id="WTddCbC6a__xVhWKfnHQ-63" value="" style="group" vertex="1" connectable="0" parent="WTddCbC6a__xVhWKfnHQ-85">
          <mxGeometry x="414" y="287" width="40" height="29" as="geometry" />
        </mxCell>
        <mxCell id="WTddCbC6a__xVhWKfnHQ-64" value="&lt;font style=&quot;font-size: 4px;&quot;&gt;Call&lt;/font&gt;" style="text;html=1;align=center;verticalAlign=middle;resizable=0;points=[];autosize=1;strokeColor=none;fillColor=none;fontSize=7;" vertex="1" parent="WTddCbC6a__xVhWKfnHQ-63">
          <mxGeometry x="5" width="30" height="20" as="geometry" />
        </mxCell>
        <mxCell id="WTddCbC6a__xVhWKfnHQ-65" value="" style="endArrow=classic;html=1;rounded=0;fontSize=7;strokeWidth=1;endSize=1;" edge="1" parent="WTddCbC6a__xVhWKfnHQ-63">
          <mxGeometry width="50" height="50" relative="1" as="geometry">
            <mxPoint x="8" y="13.5" as="sourcePoint" />
            <mxPoint x="32.370000000000005" y="13.5" as="targetPoint" />
          </mxGeometry>
        </mxCell>
        <mxCell id="WTddCbC6a__xVhWKfnHQ-66" value="" style="endArrow=none;html=1;rounded=0;fontSize=7;strokeWidth=1;endSize=1;startSize=1;startArrow=classic;startFill=1;endFill=0;" edge="1" parent="WTddCbC6a__xVhWKfnHQ-63">
          <mxGeometry width="50" height="50" relative="1" as="geometry">
            <mxPoint x="8" y="21.879999999999995" as="sourcePoint" />
            <mxPoint x="32.36999999999989" y="21.879999999999995" as="targetPoint" />
          </mxGeometry>
        </mxCell>
        <mxCell id="WTddCbC6a__xVhWKfnHQ-67" value="&lt;span style=&quot;font-size: 4px;&quot;&gt;Return&lt;/span&gt;" style="text;html=1;align=center;verticalAlign=middle;resizable=0;points=[];autosize=1;strokeColor=none;fillColor=none;fontSize=7;" vertex="1" parent="WTddCbC6a__xVhWKfnHQ-63">
          <mxGeometry y="9" width="40" height="20" as="geometry" />
        </mxCell>
        <mxCell id="WTddCbC6a__xVhWKfnHQ-68" value="" style="group" vertex="1" connectable="0" parent="WTddCbC6a__xVhWKfnHQ-85">
          <mxGeometry x="414" y="251" width="40" height="29" as="geometry" />
        </mxCell>
        <mxCell id="WTddCbC6a__xVhWKfnHQ-69" value="&lt;font style=&quot;font-size: 4px;&quot;&gt;Call&lt;/font&gt;" style="text;html=1;align=center;verticalAlign=middle;resizable=0;points=[];autosize=1;strokeColor=none;fillColor=none;fontSize=7;" vertex="1" parent="WTddCbC6a__xVhWKfnHQ-68">
          <mxGeometry x="5" width="30" height="20" as="geometry" />
        </mxCell>
        <mxCell id="WTddCbC6a__xVhWKfnHQ-70" value="" style="endArrow=classic;html=1;rounded=0;fontSize=7;strokeWidth=1;endSize=1;" edge="1" parent="WTddCbC6a__xVhWKfnHQ-68">
          <mxGeometry width="50" height="50" relative="1" as="geometry">
            <mxPoint x="8" y="13.5" as="sourcePoint" />
            <mxPoint x="32.370000000000005" y="13.5" as="targetPoint" />
          </mxGeometry>
        </mxCell>
        <mxCell id="WTddCbC6a__xVhWKfnHQ-71" value="" style="endArrow=none;html=1;rounded=0;fontSize=7;strokeWidth=1;endSize=1;startSize=1;startArrow=classic;startFill=1;endFill=0;" edge="1" parent="WTddCbC6a__xVhWKfnHQ-68">
          <mxGeometry width="50" height="50" relative="1" as="geometry">
            <mxPoint x="8" y="21.879999999999995" as="sourcePoint" />
            <mxPoint x="32.36999999999989" y="21.879999999999995" as="targetPoint" />
          </mxGeometry>
        </mxCell>
        <mxCell id="WTddCbC6a__xVhWKfnHQ-72" value="&lt;span style=&quot;font-size: 4px;&quot;&gt;Return&lt;/span&gt;" style="text;html=1;align=center;verticalAlign=middle;resizable=0;points=[];autosize=1;strokeColor=none;fillColor=none;fontSize=7;" vertex="1" parent="WTddCbC6a__xVhWKfnHQ-68">
          <mxGeometry y="9" width="40" height="20" as="geometry" />
        </mxCell>
        <mxCell id="WTddCbC6a__xVhWKfnHQ-73" value="" style="group" vertex="1" connectable="0" parent="WTddCbC6a__xVhWKfnHQ-85">
          <mxGeometry x="414" y="218" width="40" height="29" as="geometry" />
        </mxCell>
        <mxCell id="WTddCbC6a__xVhWKfnHQ-74" value="&lt;font style=&quot;font-size: 4px;&quot;&gt;Call&lt;/font&gt;" style="text;html=1;align=center;verticalAlign=middle;resizable=0;points=[];autosize=1;strokeColor=none;fillColor=none;fontSize=7;" vertex="1" parent="WTddCbC6a__xVhWKfnHQ-73">
          <mxGeometry x="5" width="30" height="20" as="geometry" />
        </mxCell>
        <mxCell id="WTddCbC6a__xVhWKfnHQ-75" value="" style="endArrow=classic;html=1;rounded=0;fontSize=7;strokeWidth=1;endSize=1;" edge="1" parent="WTddCbC6a__xVhWKfnHQ-73">
          <mxGeometry width="50" height="50" relative="1" as="geometry">
            <mxPoint x="8" y="13.5" as="sourcePoint" />
            <mxPoint x="32.370000000000005" y="13.5" as="targetPoint" />
          </mxGeometry>
        </mxCell>
        <mxCell id="WTddCbC6a__xVhWKfnHQ-76" value="" style="endArrow=none;html=1;rounded=0;fontSize=7;strokeWidth=1;endSize=1;startSize=1;startArrow=classic;startFill=1;endFill=0;" edge="1" parent="WTddCbC6a__xVhWKfnHQ-73">
          <mxGeometry width="50" height="50" relative="1" as="geometry">
            <mxPoint x="8" y="21.879999999999995" as="sourcePoint" />
            <mxPoint x="32.36999999999989" y="21.879999999999995" as="targetPoint" />
          </mxGeometry>
        </mxCell>
        <mxCell id="WTddCbC6a__xVhWKfnHQ-77" value="&lt;span style=&quot;font-size: 4px;&quot;&gt;Return&lt;/span&gt;" style="text;html=1;align=center;verticalAlign=middle;resizable=0;points=[];autosize=1;strokeColor=none;fillColor=none;fontSize=7;" vertex="1" parent="WTddCbC6a__xVhWKfnHQ-73">
          <mxGeometry y="9" width="40" height="20" as="geometry" />
        </mxCell>
        <mxCell id="WTddCbC6a__xVhWKfnHQ-78" value="" style="group" vertex="1" connectable="0" parent="WTddCbC6a__xVhWKfnHQ-85">
          <mxGeometry x="414" y="182" width="40" height="29" as="geometry" />
        </mxCell>
        <mxCell id="WTddCbC6a__xVhWKfnHQ-79" value="&lt;font style=&quot;font-size: 4px;&quot;&gt;Call&lt;/font&gt;" style="text;html=1;align=center;verticalAlign=middle;resizable=0;points=[];autosize=1;strokeColor=none;fillColor=none;fontSize=7;" vertex="1" parent="WTddCbC6a__xVhWKfnHQ-78">
          <mxGeometry x="5" width="30" height="20" as="geometry" />
        </mxCell>
        <mxCell id="WTddCbC6a__xVhWKfnHQ-80" value="" style="endArrow=classic;html=1;rounded=0;fontSize=7;strokeWidth=1;endSize=1;" edge="1" parent="WTddCbC6a__xVhWKfnHQ-78">
          <mxGeometry width="50" height="50" relative="1" as="geometry">
            <mxPoint x="8" y="13.5" as="sourcePoint" />
            <mxPoint x="32.370000000000005" y="13.5" as="targetPoint" />
          </mxGeometry>
        </mxCell>
        <mxCell id="WTddCbC6a__xVhWKfnHQ-81" value="" style="endArrow=none;html=1;rounded=0;fontSize=7;strokeWidth=1;endSize=1;startSize=1;startArrow=classic;startFill=1;endFill=0;" edge="1" parent="WTddCbC6a__xVhWKfnHQ-78">
          <mxGeometry width="50" height="50" relative="1" as="geometry">
            <mxPoint x="8" y="21.879999999999995" as="sourcePoint" />
            <mxPoint x="32.36999999999989" y="21.879999999999995" as="targetPoint" />
          </mxGeometry>
        </mxCell>
        <mxCell id="WTddCbC6a__xVhWKfnHQ-82" value="&lt;span style=&quot;font-size: 4px;&quot;&gt;Return&lt;/span&gt;" style="text;html=1;align=center;verticalAlign=middle;resizable=0;points=[];autosize=1;strokeColor=none;fillColor=none;fontSize=7;" vertex="1" parent="WTddCbC6a__xVhWKfnHQ-78">
          <mxGeometry y="9" width="40" height="20" as="geometry" />
        </mxCell>
      </root>
    </mxGraphModel>
  </diagram>
</mxfile>
